<?xml version="1.0" encoding="UTF-8" standalone="no"?>
<!-- Created with Inkscape (http://www.inkscape.org/) -->

<svg
   xmlns:dc="http://purl.org/dc/elements/1.1/"
   xmlns:cc="http://creativecommons.org/ns#"
   xmlns:rdf="http://www.w3.org/1999/02/22-rdf-syntax-ns#"
   xmlns:svg="http://www.w3.org/2000/svg"
   xmlns="http://www.w3.org/2000/svg"
   xmlns:sodipodi="http://sodipodi.sourceforge.net/DTD/sodipodi-0.dtd"
   xmlns:inkscape="http://www.inkscape.org/namespaces/inkscape"
   width="210mm"
   height="297mm"
   viewBox="0 0 210 297"
   version="1.1"
   id="svg2505"
   inkscape:version="0.92.2 (unknown)"
   sodipodi:docname="box_mdm_6mm.svg">
  <defs
     id="defs2499" />
  <sodipodi:namedview
     id="base"
     pagecolor="#ffffff"
     bordercolor="#666666"
     borderopacity="1.0"
     inkscape:pageopacity="0.0"
     inkscape:pageshadow="2"
     inkscape:zoom="0.35"
     inkscape:cx="-232.85714"
     inkscape:cy="560"
     inkscape:document-units="mm"
     inkscape:current-layer="layer1"
     showgrid="false"
     inkscape:window-width="1855"
     inkscape:window-height="1056"
     inkscape:window-x="65"
     inkscape:window-y="24"
     inkscape:window-maximized="1" />
  <metadata
     id="metadata2502">
    <rdf:RDF>
      <cc:Work
         rdf:about="">
        <dc:format>image/svg+xml</dc:format>
        <dc:type
           rdf:resource="http://purl.org/dc/dcmitype/StillImage" />
        <dc:title></dc:title>
      </cc:Work>
    </rdf:RDF>
  </metadata>
  <g
     inkscape:label="Calque 1"
     inkscape:groupmode="layer"
     id="layer1">
    <path
       inkscape:connector-curvature="0"
       style="opacity:0.95999995;fill:#7d7d7d;fill-opacity:1;fill-rule:nonzero;stroke:none;stroke-width:0.35277778;stroke-miterlimit:4;stroke-dasharray:none;stroke-dashoffset:0;stroke-opacity:1"
       d="m 134.50025,148.50023 -52.000456,5.2e-4 c -2.21599,1e-5 -3.99976,1.78325 -3.99976,3.99924 v 52.00044 c 0,2.216 1.78377,4.0003 3.99976,4.00029 l 52.000456,-5.3e-4 c 2.21599,-2e-5 3.99976,-1.78377 3.99976,-3.99977 v -52.00043 c 3e-5,-2.21599 -1.78377,-3.99977 -3.99976,-3.99976 z m -51.001546,3.40031 a 1.6,1.6 0 0 1 1.59991,1.5999 1.6,1.6 0 0 1 -1.59991,1.5999 1.6,1.6 0 0 1 -1.59991,-1.5999 1.6,1.6 0 0 1 1.59991,-1.5999 z m 50.001106,0 a 1.6,1.6 0 0 1 1.59988,1.5999 1.6,1.6 0 0 1 -1.59988,1.5999 1.6,1.6 0 0 1 -1.59991,-1.5999 1.6,1.6 0 0 1 1.59991,-1.5999 z m -43.860396,6.60012 h 43.859866 v 40.49933 H 89.639414 Z m -6.14071,43.39993 a 1.5999999,1.5999999 0 0 1 1.59991,1.5999 1.5999999,1.5999999 0 0 1 -1.59991,1.59991 1.5999999,1.5999999 0 0 1 -1.59991,-1.59991 1.5999999,1.5999999 0 0 1 1.59991,-1.5999 z m 50.001106,0 a 1.6,1.6 0 0 1 1.59988,1.5999 1.6,1.6 0 0 1 -1.59988,1.59991 1.6,1.6 0 0 1 -1.59991,-1.59991 1.6,1.6 0 0 1 1.59991,-1.5999 z"
       id="path6791" />
    <path
       inkscape:connector-curvature="0"
       style="opacity:0.95999995;fill:#7d7d7d;fill-opacity:1;fill-rule:nonzero;stroke:none;stroke-width:0.35277778;stroke-miterlimit:4;stroke-dasharray:none;stroke-dashoffset:0;stroke-opacity:1"
       d="m 82.499804,85.000096 c -2.21599,0 -3.99976,1.78378 -3.99976,3.99977 v 52.000444 c 0,2.21599 1.78377,3.99976 3.99976,3.99976 h 52.000456 c 2.21599,0 3.99976,-1.78377 3.99976,-3.99976 V 88.999866 c 0,-2.21599 -1.78377,-3.99977 -3.99976,-3.99977 z m 0.99891,2.60036 a 2.3999998,2.3999998 0 0 1 2.39985,2.39985 2.3999998,2.3999998 0 0 1 -2.39985,2.40038 2.3999998,2.3999998 0 0 1 -2.39985,-2.40038 2.3999998,2.3999998 0 0 1 2.39985,-2.39985 z m 50.001106,0 a 2.3999998,2.3999998 0 0 1 2.39985,2.39985 2.3999998,2.3999998 0 0 1 -2.39985,2.40038 2.3999998,2.3999998 0 0 1 -2.39988,-2.40038 2.3999998,2.3999998 0 0 1 2.39988,-2.39985 z m -43.860396,7.40008 H 133.49929 V 135.49985 H 89.639424 Z m -6.14071,42.599984 a 2.3999999,2.3999999 0 0 1 2.39985,2.39985 2.3999999,2.3999999 0 0 1 -2.39985,2.39985 2.3999999,2.3999999 0 0 1 -2.39985,-2.39985 2.3999999,2.3999999 0 0 1 2.39985,-2.39985 z m 50.001106,0 a 2.3999998,2.3999998 0 0 1 2.39985,2.39985 2.3999998,2.3999998 0 0 1 -2.39985,2.39985 2.3999998,2.3999998 0 0 1 -2.39988,-2.39985 2.3999998,2.3999998 0 0 1 2.39988,-2.39985 z"
       id="path6793" />
    <path
       style="opacity:0.95999995;fill:#7d7d7d;fill-opacity:1;fill-rule:nonzero;stroke:none;stroke-width:0.35277778;stroke-miterlimit:4;stroke-dasharray:none;stroke-dashoffset:0;stroke-opacity:1"
       d="m 82.499754,212.00007 c -2.21598,0 -3.99975,1.78376 -3.99975,3.99975 v 52.00042 c 0,2.216 1.78377,3.99976 3.99975,3.99976 h 52.000466 c 2.21599,0 3.99976,-1.78376 3.99976,-3.99976 V 262.4998 H 89.640414 v -25.8997 h 48.859566 v -20.60028 c 0,-2.21599 -1.78377,-3.99975 -3.99976,-3.99975 z m 0.99891,3.4003 c 0.88358,5e-5 1.59985,0.71632 1.5999,1.5999 -5e-5,0.88358 -0.71632,1.59985 -1.5999,1.59991 -0.88358,-6e-5 -1.59985,-0.71633 -1.5999,-1.59991 5e-5,-0.88358 0.71632,-1.59985 1.5999,-1.5999 z m 50.001096,0 c 0.88358,5e-5 1.59985,0.71632 1.59991,1.5999 -6e-5,0.88358 -0.71633,1.59985 -1.59991,1.59991 -0.88358,-6e-5 -1.59984,-0.71633 -1.5999,-1.59991 6e-5,-0.88358 0.71633,-1.59984 1.5999,-1.5999 z m -11.61841,6.62077 h 4.49998 v 1.49964 h -4.49998 z m -22.021926,1.5167 a 2.7137339,2.7137339 0 0 1 2.713526,2.71354 2.7137339,2.7137339 0 0 1 -2.713526,2.71352 2.7137339,2.7137339 0 0 1 -2.71405,-2.71352 2.7137339,2.7137339 0 0 1 2.71405,-2.71354 z m 15.875006,0 a 2.7137339,2.7137339 0 0 1 2.71353,2.71354 2.7137339,2.7137339 0 0 1 -2.71353,2.71352 2.7137339,2.7137339 0 0 1 -2.71405,-2.71352 2.7137339,2.7137339 0 0 1 2.71405,-2.71354 z m 6.14692,5.54024 h 4.49998 v 1.50015 h -4.49998 z M 83.498664,265.4004 c 0.88358,5e-5 1.59985,0.71632 1.5999,1.5999 -5e-5,0.88358 -0.71632,1.59986 -1.5999,1.59991 -0.88357,-5e-5 -1.59985,-0.71633 -1.5999,-1.59991 5e-5,-0.88358 0.71632,-1.59985 1.5999,-1.5999 z m 50.001096,0 c 0.88359,5e-5 1.59986,0.71632 1.59991,1.5999 -6e-5,0.88358 -0.71633,1.59986 -1.59991,1.59991 -0.88357,-6e-5 -1.59984,-0.71633 -1.5999,-1.59991 5e-5,-0.88358 0.71632,-1.59985 1.5999,-1.5999 z"
       id="path6795"
       inkscape:connector-curvature="0" />
    <path
       sodipodi:nodetypes="ssssssccccccccsssccccccccccccccccccccccccccccccccccccccccccccc"
       id="path6797"
       d="m 82.499804,21.500116 c -2.21599,0 -3.99976,1.78375 -3.99976,3.99975 v 52.00044 c 0,2.21599 1.78377,3.99976 3.99976,3.99976 h 52.000456 c 2.21599,0 3.99976,-1.78377 3.99976,-3.99976 v -39.0336 l -9.9994,-1e-5 v 1.63331 H 94.640154 v -8.6 h 33.860466 v 1.5367 h 9.9994 v -7.53684 c 0,-2.216 -1.78377,-3.99975 -3.99976,-3.99975 z m 0.99891,3.40031 c 0.88358,5e-5 1.59985,0.71632 1.59991,1.5999 -6e-5,0.88358 -0.71633,1.59984 -1.59991,1.59989 -0.88358,-5e-5 -1.59986,-0.71631 -1.59991,-1.59989 5e-5,-0.88358 0.71633,-1.59985 1.59991,-1.5999 z m 50.001106,0 c 0.88357,7e-5 1.59983,0.71633 1.59988,1.5999 -5e-5,0.88356 -0.71631,1.59983 -1.59988,1.59989 -0.88358,-5e-5 -1.59985,-0.71631 -1.59991,-1.59989 6e-5,-0.88358 0.71633,-1.59985 1.59991,-1.5999 z m -38.859156,21.19972 h 38.859656 v 25.89971 H 94.640664 Z m -2.71352,1.98955 c 0.30361,10e-5 0.54975,0.24621 0.54983,0.54984 -8e-5,0.30363 -0.24622,0.54974 -0.54983,0.54983 -0.30366,-8e-5 -0.54977,-0.24619 -0.54985,-0.54983 8e-5,-0.30365 0.24619,-0.54975 0.54985,-0.54984 z m 43.665556,0 c 0.30364,10e-5 0.54975,0.24621 0.54983,0.54984 -8e-5,0.30363 -0.24619,0.54974 -0.54983,0.54983 -0.30382,2e-4 -0.55028,-0.24599 -0.55036,-0.54983 8e-5,-0.30383 0.24654,-0.55004 0.55036,-0.54984 z m -43.665556,20.82094 c 0.30382,1.3e-4 0.55002,0.24653 0.54983,0.55036 -8e-5,0.30363 -0.24622,0.54975 -0.54983,0.54985 -0.30366,-8e-5 -0.54977,-0.24622 -0.54985,-0.54985 -1.6e-4,-0.30383 0.24598,-0.55026 0.54985,-0.55036 z m 43.665556,0 c 0.30382,1.3e-4 0.55004,0.24653 0.54983,0.55036 -8e-5,0.30363 -0.24619,0.54975 -0.54983,0.54985 -0.30382,1.9e-4 -0.55028,-0.24601 -0.55036,-0.54985 -1.6e-4,-0.30404 0.24633,-0.55052 0.55036,-0.55036 z m -52.093986,5.98982 c 0.88358,5e-5 1.59986,0.71633 1.59991,1.59991 -5e-5,0.88358 -0.71633,1.59986 -1.59991,1.59991 -0.88359,-5e-5 -1.59986,-0.71633 -1.59991,-1.59991 5e-5,-0.88358 0.71632,-1.59986 1.59991,-1.59991 z m 50.001106,0 c 0.88357,7e-5 1.59983,0.71634 1.59988,1.59991 -5e-5,0.88357 -0.71631,1.59984 -1.59988,1.59991 -0.88359,-5e-5 -1.59986,-0.71633 -1.59991,-1.59991 5e-5,-0.88358 0.71632,-1.59986 1.59991,-1.59991 z"
       style="opacity:0.95999995;fill:#7d7d7d;fill-opacity:1;fill-rule:nonzero;stroke:none;stroke-width:0.35277778;stroke-miterlimit:4;stroke-dasharray:none;stroke-dashoffset:0;stroke-opacity:1"
       inkscape:connector-curvature="0" />
  </g>
</svg>
